<?xml version="1.0" encoding="UTF-8" standalone="no"?>
<svg
   xmlns:dc="http://purl.org/dc/elements/1.1/"
   xmlns:cc="http://creativecommons.org/ns#"
   xmlns:rdf="http://www.w3.org/1999/02/22-rdf-syntax-ns#"
   xmlns:svg="http://www.w3.org/2000/svg"
   xmlns="http://www.w3.org/2000/svg"
   xmlns:sodipodi="http://sodipodi.sourceforge.net/DTD/sodipodi-0.dtd"
   xmlns:inkscape="http://www.inkscape.org/namespaces/inkscape"
   id="svg2"
   height="320"
   width="320"
   version="1.1"
   viewBox="0 0 320 320.00001"
   sodipodi:docname="logo_white.svg"
   inkscape:version="0.92.2 (unknown)">
  <metadata
     id="metadata13">
    <rdf:RDF>
      <cc:Work
         rdf:about="">
        <dc:format>image/svg+xml</dc:format>
        <dc:type
           rdf:resource="http://purl.org/dc/dcmitype/StillImage" />
        <dc:title></dc:title>
      </cc:Work>
    </rdf:RDF>
  </metadata>
  <defs
     id="defs11" />
  <sodipodi:namedview
     pagecolor="#ffffff"
     bordercolor="#666666"
     borderopacity="1"
     objecttolerance="10"
     gridtolerance="10"
     guidetolerance="10"
     inkscape:pageopacity="0"
     inkscape:pageshadow="2"
     inkscape:window-width="1855"
     inkscape:window-height="1056"
     id="namedview9"
     showgrid="false"
     inkscape:pagecheckerboard="true"
     inkscape:zoom="1.475"
     inkscape:cx="278.08625"
     inkscape:cy="96.849365"
     inkscape:window-x="1431"
     inkscape:window-y="24"
     inkscape:window-maximized="1"
     inkscape:current-layer="svg2" />
  <path
     style="fill:#ffffff;stroke-width:0.83066773"
     d="m 85.103242,319.33622 c -3.683209,-2.00178 -4.116702,-4.46781 -3.871319,-22.02234 l 0.226312,-16.18869 h 12.875329 12.875366 l 0.22631,16.18869 c 0.2477,17.72084 -0.18178,20.06601 -4.04006,22.06121 -3.10072,1.60344 -15.317925,1.57749 -18.291938,-0.0388 z m 66.453398,0 c -3.6832,-2.00178 -4.11669,-4.46781 -3.87131,-22.02234 l 0.2263,-16.18869 h 12.87535 12.87535 l 0.2263,16.18869 c 0.24771,17.72084 -0.18176,20.06601 -4.04004,22.06121 -3.10073,1.60344 -15.31794,1.57749 -18.29195,-0.0388 z m 66.45346,0 c -3.68325,-2.00178 -4.11674,-4.46781 -3.87134,-22.02234 l 0.22626,-16.18869 h 12.87539 12.87536 l 0.22628,16.18869 c 0.24771,17.72084 -0.18174,20.06601 -4.04005,22.06121 -3.10073,1.60344 -15.31795,1.57749 -18.2919,-0.0388 z M 81.04289,266.22887 C 70.544667,263.30302 62.627236,256.65262 57.928922,246.81382 l -3.052065,-6.39133 V 161.09372 81.764949 l 2.659345,-5.614094 c 3.693704,-7.79771 9.847848,-14.054019 17.58693,-17.878875 l 6.248927,-3.088395 h 79.371851 79.37186 l 6.3913,3.052063 c 10.01463,4.782275 16.58206,12.717039 19.47458,23.529301 1.65449,6.184528 1.62876,152.559921 -0.028,158.781991 -3.3695,12.6549 -13.07903,22.32809 -25.83802,25.74142 -5.86375,1.56869 -153.428735,1.5135 -159.072851,-0.0595 z m 45.79341,-34.9989 c 1.41675,-0.73262 3.04182,-2.5592 3.71916,-4.18031 1.14925,-2.75055 1.05862,-3.23967 -2.02947,-10.95116 -4.94108,-12.33886 -5.54116,-15.63373 -5.47914,-30.08476 0.0498,-11.58648 0.28386,-13.62372 2.33895,-20.35135 8.75708,-28.66769 30.46736,-50.49854 55.7041,-56.01347 3.72601,-0.81424 7.58887,-1.91625 8.58412,-2.44889 5.30596,-2.83967 4.33471,-11.632086 -1.62548,-14.714199 -4.89673,-2.53221 -17.56011,0.196364 -30.16889,6.500486 -29.48408,14.741373 -49.7928,44.535403 -53.58138,78.606843 -1.59142,14.31192 1.36633,31.42702 7.85989,45.4815 3.99043,8.63676 8.69374,11.24995 14.67814,8.15531 z m 37.89506,-9.9078 c 2.57676,-2.99567 2.38462,-6.92491 -0.63077,-12.89835 -8.74982,-17.33329 -6.01416,-37.20729 7.0664,-51.33584 7.54042,-8.14455 16.16616,-12.73422 26.74901,-14.23296 8.41344,-1.19149 11.90406,-5.7867 9.01706,-11.87055 -2.15426,-4.53973 -5.42023,-5.92541 -12.54611,-5.32306 -15.01334,1.2691 -32.42381,11.41909 -41.46937,24.17595 -13.58583,19.15991 -15.9538,40.07376 -6.97846,61.6335 2.75294,6.61289 5.72281,10.77805 8.55011,11.99131 3.05675,1.31176 8.19685,0.23779 10.24213,-2.14 z m 39.65345,-17.77191 c 14.19689,-7.97189 15.16601,-28.25344 1.78004,-37.25357 -7.50062,-5.04312 -14.89414,-5.5471 -22.77692,-1.55261 -7.59246,3.84742 -11.75936,10.78578 -11.77591,19.60835 -0.0151,8.08361 2.90959,13.55675 10.19567,19.07941 5.08145,3.85158 15.8284,3.90795 22.57712,0.11842 z M 5.5435592,239.68791 c -3.2257239,-1.80298 -4.1835259,-4.52379 -4.2153412,-11.97435 -0.033643,-7.87404 1.1647016,-11.05662 4.7170843,-12.52807 1.571692,-0.65102 7.6148747,-0.89247 18.5215327,-0.73999 l 16.188675,0.22629 v 12.87534 12.87536 l -16.61336,0.18753 c -12.601946,0.14225 -17.0927086,-0.0803 -18.5985908,-0.92211 z m 275.2250108,0.0734 c -0.22721,-0.59208 -0.30895,-6.47945 -0.1816,-13.08302 l 0.23151,-12.00645 16.18866,-0.22629 c 17.72083,-0.24773 20.06599,0.18173 22.06122,4.04004 1.48702,2.87563 1.62944,14.70121 0.21444,17.80681 -1.85587,4.07314 -4.1249,4.54547 -21.83583,4.54547 -12.55377,0 -16.35954,-0.24566 -16.6784,-1.07654 z M 5.5435592,173.23451 C 2.3178353,171.4315 1.3600333,168.71069 1.328218,161.26013 c -0.033643,-7.87401 1.1647016,-11.05662 4.7170843,-12.52805 1.571692,-0.65103 7.6148747,-0.89246 18.5215327,-0.74002 l 16.188675,0.22631 v 12.87535 12.87535 L 24.14215,174.1566 C 11.540204,174.29887 7.0494414,174.0763 5.5435592,173.23451 Z m 275.2250108,0.0733 c -0.22721,-0.59209 -0.30895,-6.47944 -0.1816,-13.08303 l 0.23151,-12.00645 16.18866,-0.22631 c 17.72083,-0.2477 20.06599,0.18177 22.06122,4.04006 1.48702,2.87562 1.62944,14.70122 0.21444,17.80683 -1.85587,4.07312 -4.1249,4.54545 -21.83583,4.54545 -12.55377,0 -16.35954,-0.24565 -16.6784,-1.07654 z M 5.5435592,106.78108 C 2.3178353,104.97809 1.3600333,102.25727 1.328218,94.806707 1.294575,86.932699 2.4929196,83.750092 6.0453023,82.278659 7.6169943,81.627641 13.660177,81.386191 24.566835,81.538647 l 16.188675,0.226302 v 12.875341 12.87536 l -16.61336,0.18753 c -12.601946,0.14226 -17.0927086,-0.0803 -18.5985908,-0.9221 z m 275.2250108,0.0733 c -0.22721,-0.59207 -0.30895,-6.47944 -0.1816,-13.083014 l 0.23151,-12.00646 16.18866,-0.226303 c 17.72083,-0.247715 20.06599,0.181758 22.06122,4.040054 1.48702,2.875623 1.62944,14.701213 0.21444,17.806813 -1.85587,4.07312 -4.1249,4.54548 -21.83583,4.54548 -12.55377,0 -16.35954,-0.24566 -16.6784,-1.07655 z M 81.617443,40.944571 C 81.301438,40.628559 81.04289,33.12464 81.04289,24.269182 c 0,-17.5342301 0.479126,-19.8185297 4.545464,-21.6712785 3.105604,-1.4150088 14.931206,-1.2725973 17.806826,0.2144427 3.85828,1.9952035 4.28776,4.3403848 4.04006,22.0612138 l -0.22631,16.188676 -12.508466,0.228442 c -6.879658,0.125646 -12.767018,-0.03009 -13.083021,-0.346107 z m 66.453417,0 c -0.31601,-0.316012 -0.57456,-7.819931 -0.57456,-16.675389 0,-17.5342301 0.47912,-19.8185297 4.54546,-21.6712785 3.10561,-1.4150088 14.9312,-1.2725973 17.80683,0.2144427 3.85828,1.9952035 4.28775,4.3403848 4.04004,22.0612138 l -0.2263,16.188676 -12.50847,0.228442 c -6.87964,0.125646 -12.76701,-0.03009 -13.083,-0.346107 z m 66.45342,0 c -0.31599,-0.316012 -0.57454,-7.819931 -0.57454,-16.675389 0,-17.5342301 0.47909,-19.8185297 4.54542,-21.6712785 3.10564,-1.4150088 14.93121,-1.2725973 17.80684,0.2144427 3.85831,1.9952035 4.28776,4.3403848 4.04005,22.0612138 l -0.22628,16.188676 -12.50848,0.228442 c -6.87968,0.125646 -12.76704,-0.03009 -13.08301,-0.346107 z"
     id="path28"
     inkscape:connector-curvature="0" />
</svg>
